<svg width="35" height="32" viewBox="0 0 35 32" fill="none" xmlns="http://www.w3.org/2000/svg">
<rect width="32" height="32" fill="white"/>
<path d="M4.17188 18.2734L4.17578 16.2773H4.41797L6.33984 14H8.25L5.66797 17.0156H5.27344L4.17188 18.2734ZM2.66406 20V12H4.32813V20H2.66406ZM6.41406 20L4.64844 17.3867L5.75781 16.2109L8.36328 20H6.41406ZM11.5537 20.1172C10.9365 20.1172 10.4053 19.9922 9.95996 19.7422C9.51725 19.4896 9.17611 19.1328 8.93652 18.6719C8.69694 18.2083 8.57715 17.6602 8.57715 17.0273C8.57715 16.4102 8.69694 15.8685 8.93652 15.4023C9.17611 14.9362 9.51335 14.5729 9.94824 14.3125C10.3857 14.0521 10.8988 13.9219 11.4873 13.9219C11.8831 13.9219 12.2516 13.9857 12.5928 14.1133C12.9365 14.2383 13.236 14.4271 13.4912 14.6797C13.749 14.9323 13.9495 15.25 14.0928 15.6328C14.236 16.013 14.3076 16.4583 14.3076 16.9687V17.4258H9.24121V16.3945H12.7412C12.7412 16.1549 12.6891 15.9427 12.585 15.7578C12.4808 15.5729 12.3363 15.4284 12.1514 15.3242C11.9691 15.2174 11.7568 15.1641 11.5146 15.1641C11.262 15.1641 11.0381 15.2227 10.8428 15.3398C10.6501 15.4544 10.499 15.6094 10.3896 15.8047C10.2803 15.9974 10.2243 16.2122 10.2217 16.4492V17.4297C10.2217 17.7266 10.2764 17.9831 10.3857 18.1992C10.4977 18.4154 10.6553 18.582 10.8584 18.6992C11.0615 18.8164 11.3024 18.875 11.5811 18.875C11.766 18.875 11.9352 18.849 12.0889 18.7969C12.2425 18.7448 12.374 18.6667 12.4834 18.5625C12.5928 18.4583 12.6761 18.3307 12.7334 18.1797L14.2725 18.2812C14.1943 18.651 14.0342 18.974 13.792 19.25C13.5524 19.5234 13.2425 19.737 12.8623 19.8906C12.4847 20.0417 12.0485 20.1172 11.5537 20.1172ZM16.2598 22.25C16.0488 22.25 15.8509 22.2331 15.666 22.1992C15.4837 22.168 15.3327 22.1276 15.2129 22.0781L15.5879 20.8359C15.7832 20.8958 15.959 20.9284 16.1152 20.9336C16.2741 20.9388 16.4108 20.9023 16.5254 20.8242C16.6426 20.7461 16.7376 20.6133 16.8105 20.4258L16.9082 20.1719L14.7559 14H16.5059L17.748 18.4062H17.8105L19.0645 14H20.8262L18.4941 20.6484C18.3822 20.9714 18.2298 21.2526 18.0371 21.4922C17.847 21.7344 17.6061 21.9206 17.3145 22.0508C17.0228 22.1836 16.6712 22.25 16.2598 22.25ZM26.6699 15.7109L25.1465 15.8047C25.1204 15.6745 25.0645 15.5573 24.9785 15.4531C24.8926 15.3464 24.7793 15.2617 24.6387 15.1992C24.5007 15.1341 24.3353 15.1016 24.1426 15.1016C23.8848 15.1016 23.6673 15.1562 23.4902 15.2656C23.3132 15.3724 23.2246 15.5156 23.2246 15.6953C23.2246 15.8385 23.2819 15.9596 23.3965 16.0586C23.5111 16.1576 23.7077 16.237 23.9863 16.2969L25.0723 16.5156C25.6556 16.6354 26.0905 16.8281 26.377 17.0937C26.6634 17.3594 26.8066 17.7083 26.8066 18.1406C26.8066 18.5339 26.6908 18.8789 26.459 19.1758C26.2298 19.4727 25.9147 19.7044 25.5137 19.8711C25.1152 20.0352 24.6556 20.1172 24.1348 20.1172C23.3405 20.1172 22.7077 19.9518 22.2363 19.6211C21.7676 19.2878 21.4928 18.8346 21.4121 18.2617L23.0488 18.1758C23.0983 18.418 23.2181 18.6029 23.4082 18.7305C23.5983 18.8555 23.8418 18.918 24.1387 18.918C24.4303 18.918 24.6647 18.862 24.8418 18.75C25.0215 18.6354 25.1126 18.4883 25.1152 18.3086C25.1126 18.1576 25.0488 18.0339 24.9238 17.9375C24.7988 17.8385 24.6061 17.763 24.3457 17.7109L23.3066 17.5039C22.7207 17.3867 22.2845 17.1836 21.998 16.8945C21.7142 16.6055 21.5723 16.237 21.5723 15.7891C21.5723 15.4036 21.6764 15.0716 21.8848 14.793C22.0957 14.5143 22.3913 14.2995 22.7715 14.1484C23.1543 13.9974 23.6022 13.9219 24.1152 13.9219C24.873 13.9219 25.4694 14.082 25.9043 14.4023C26.3418 14.7227 26.597 15.1589 26.6699 15.7109ZM28.8271 20.1016C28.5693 20.1016 28.348 20.0104 28.1631 19.8281C27.9808 19.6432 27.8896 19.4219 27.8896 19.1641C27.8896 18.9089 27.9808 18.6901 28.1631 18.5078C28.348 18.3255 28.5693 18.2344 28.8271 18.2344C29.0771 18.2344 29.2959 18.3255 29.4834 18.5078C29.6709 18.6901 29.7646 18.9089 29.7646 19.1641C29.7646 19.3359 29.7204 19.4935 29.6318 19.6367C29.5459 19.7773 29.4326 19.8906 29.292 19.9766C29.1514 20.0599 28.9964 20.1016 28.8271 20.1016Z" fill="black"/>
</svg>
